<?xml version="1.0" standalone="no"?>
<!DOCTYPE svg PUBLIC "-//W3C//DTD SVG 20010904//EN"
 "http://www.w3.org/TR/2001/REC-SVG-20010904/DTD/svg10.dtd">
<svg version="1.0" xmlns="http://www.w3.org/2000/svg"
 width="552.000000pt" height="552.000000pt" viewBox="0 0 552.000000 552.000000"
 preserveAspectRatio="xMidYMid meet">
<metadata>
Created by potrace 1.14, written by Peter Selinger 2001-2017
</metadata>
<g transform="translate(0.000000,552.000000) scale(0.100000,-0.100000)"
fill="#000000" stroke="none">
<path d="M2673 4555 c-23 -11 -55 -33 -72 -48 -17 -15 -33 -27 -35 -27 -12 0
-111 -99 -136 -135 -26 -39 -53 -104 -64 -155 -4 -18 -18 -32 -43 -44 -69 -32
-187 -105 -218 -133 -16 -15 -33 -27 -36 -26 -8 3 -68 -62 -91 -99 -10 -14
-43 -50 -74 -79 -31 -30 -63 -67 -71 -84 -9 -16 -22 -34 -29 -38 -8 -4 -14
-14 -14 -22 0 -7 -12 -28 -27 -46 -16 -18 -27 -35 -26 -38 5 -11 -9 -46 -29
-74 -11 -15 -24 -44 -30 -64 -5 -20 -21 -54 -34 -74 -13 -21 -24 -42 -24 -47
0 -4 -10 -28 -22 -53 -12 -24 -21 -49 -20 -55 1 -6 -5 -17 -13 -24 -8 -7 -15
-20 -15 -29 0 -16 -4 -25 -59 -123 -17 -31 -31 -65 -31 -75 0 -10 -4 -23 -9
-29 -12 -13 -42 -102 -48 -144 -3 -19 -8 -37 -12 -40 -13 -10 -30 -56 -37 -99
-3 -24 -18 -68 -32 -99 -20 -43 -25 -73 -26 -134 -1 -43 -4 -78 -7 -78 -4 0
-7 -10 -6 -22 0 -13 -3 -63 -7 -113 -5 -49 -10 -116 -11 -147 -2 -31 -6 -62
-9 -67 -4 -5 -9 -45 -11 -88 -3 -43 -7 -92 -10 -110 -3 -18 0 -35 5 -38 7 -4
6 -13 0 -26 -13 -23 -5 -96 15 -142 4 -10 5 -20 2 -24 -3 -3 1 -12 9 -20 8 -9
12 -23 9 -34 -7 -20 10 -60 31 -72 8 -4 14 -18 14 -30 0 -12 9 -38 19 -57 11
-19 24 -45 30 -57 6 -13 15 -23 21 -23 5 0 10 -8 10 -18 0 -17 39 -64 85 -104
11 -9 33 -30 49 -47 16 -17 35 -31 43 -31 7 0 12 -5 10 -11 -1 -7 12 -16 30
-21 17 -4 34 -17 38 -27 5 -17 102 -61 134 -61 6 0 19 -4 29 -9 36 -18 68 -30
97 -35 98 -16 192 -41 207 -54 11 -9 56 -17 134 -23 103 -8 132 -11 194 -23 8
-2 23 -6 32 -10 32 -14 631 -8 655 7 5 3 25 9 44 12 18 3 36 9 39 13 5 7 22
12 55 17 11 1 40 8 65 15 25 7 50 15 55 16 88 24 233 113 256 157 7 12 18 29
25 37 63 70 145 202 158 255 1 6 10 37 20 70 10 33 26 92 36 130 10 39 32 122
50 185 46 166 57 213 58 230 0 8 2 62 5 120 6 137 -4 210 -34 245 -42 49 -60
63 -87 68 -15 3 -38 8 -52 11 -65 17 -443 28 -517 15 -26 -4 -96 -10 -155 -12
-135 -6 -191 -25 -259 -89 -48 -46 -106 -149 -95 -167 3 -4 8 -39 10 -77 3
-38 9 -82 14 -99 11 -35 9 -196 -2 -214 -6 -9 -17 -5 -40 17 -58 55 -138 40
-200 -36 l-18 -23 -16 23 c-23 34 -53 58 -91 74 -43 18 -70 18 -77 -1 -4 -8
-13 -15 -21 -15 -8 0 -11 4 -8 10 7 12 -26 77 -55 108 -16 17 -32 22 -70 22
-47 0 -49 1 -56 32 -3 18 -22 51 -40 72 -19 22 -34 43 -34 47 0 4 -9 11 -20
14 -11 4 -34 18 -50 32 -23 18 -29 31 -24 45 4 13 2 18 -4 14 -6 -3 -2 12 9
33 10 22 19 49 19 59 0 10 8 45 19 78 10 32 26 88 36 124 9 36 40 130 67 210
27 80 54 161 60 180 5 19 15 49 22 65 8 17 19 48 26 70 20 61 86 192 114 226
l25 30 37 -35 c23 -22 49 -36 73 -38 36 -5 114 15 139 35 14 11 15 10 50 -46
16 -27 85 -67 115 -67 15 0 37 -48 37 -80 0 -31 58 -70 112 -75 10 -1 20 -4
23 -7 3 -2 7 -53 9 -111 l4 -106 59 -58 c32 -32 64 -57 71 -55 8 2 19 -1 25
-7 15 -12 90 -24 142 -23 140 4 289 14 345 22 36 5 90 12 120 16 30 3 60 9 65
12 6 4 19 7 30 8 39 3 140 59 185 103 25 25 49 44 53 43 5 -2 6 2 3 7 -4 5 2
16 12 23 20 14 47 58 36 58 -4 0 2 10 13 23 32 35 61 125 72 222 21 181 8 439
-25 492 -8 12 -14 29 -14 37 0 8 -10 27 -23 43 -12 15 -36 56 -52 90 -15 35
-36 65 -44 68 -9 4 -41 35 -71 71 -30 35 -61 64 -67 64 -7 0 -13 6 -13 13 0 7
-16 27 -35 44 -20 18 -35 41 -36 55 -2 53 -31 122 -94 218 -70 108 -115 144
-207 168 -20 6 -39 8 -41 6 -2 -3 -31 -7 -64 -10 -34 -3 -72 -8 -87 -12 -35
-10 -135 -83 -142 -104 -4 -14 -17 -18 -59 -18 -53 0 -53 0 -80 48 -32 55 -74
102 -91 102 -6 0 -14 7 -18 15 -3 8 -12 15 -21 15 -8 0 -32 11 -53 23 -20 13
-44 24 -52 25 -8 0 -40 2 -70 4 -42 3 -65 -1 -97 -17z m177 -91 c151 -52 226
-161 213 -312 -7 -85 -43 -170 -92 -215 -67 -61 -273 -95 -355 -58 -130 60
-186 209 -135 359 24 70 64 119 141 171 103 71 149 82 228 55z m756 -96 c35
-21 112 -130 138 -196 27 -70 31 -151 11 -213 -20 -63 -41 -88 -104 -128 -125
-78 -400 -25 -471 91 -10 17 -21 57 -25 89 -9 75 20 165 72 230 45 54 139 129
162 129 10 0 21 4 27 9 25 25 141 18 190 -11z m-1239 -434 c-3 -3 -12 -4 -19
-1 -8 3 -5 6 6 6 11 1 17 -2 13 -5z m79 -59 c9 -14 23 -25 32 -25 8 0 30 -11
49 -26 32 -25 43 -44 23 -44 -5 0 -10 7 -10 15 0 8 -6 15 -14 15 -8 0 -16 7
-20 15 -7 20 -25 19 -33 -1 -6 -15 27 -54 46 -54 6 0 8 -7 5 -15 -7 -17 24
-33 35 -18 7 10 107 10 133 -1 27 -12 53 -2 56 22 3 19 9 22 45 21 23 0 35 -3
27 -6 -23 -9 -50 -44 -50 -64 0 -10 -4 -21 -10 -24 -5 -3 -10 -25 -10 -49 0
-41 -1 -42 -35 -43 -35 -1 -157 -54 -183 -80 -7 -7 -24 -13 -38 -13 -17 0 -47
-23 -99 -74 -41 -41 -75 -78 -75 -83 0 -5 -17 -25 -38 -46 -20 -20 -46 -53
-56 -74 -11 -21 -30 -49 -42 -63 -22 -26 -31 -51 -41 -123 -8 -58 -20 -87 -37
-87 -10 0 -13 -13 -13 -48 0 -26 -6 -62 -15 -80 -9 -17 -20 -46 -23 -64 -4
-18 -11 -37 -15 -43 -8 -11 -30 -96 -36 -139 -4 -31 -20 -87 -34 -121 -4 -11
-11 -28 -14 -37 -3 -10 -11 -15 -20 -12 -7 3 -20 -3 -27 -13 -9 -11 -27 -18
-49 -18 -31 0 -35 -3 -38 -27 -2 -18 3 -30 17 -37 14 -8 20 -8 23 0 2 6 14 8
30 4 18 -5 25 -12 21 -21 -3 -8 -10 -14 -17 -13 -28 3 -36 -3 -36 -26 0 -16 6
-25 16 -25 12 0 14 -5 9 -17 -4 -10 -10 -44 -13 -76 -4 -54 -6 -56 -19 -37
-18 25 -28 25 -53 0 -30 -30 -16 -53 31 -47 41 5 49 -5 49 -71 0 -26 -5 -35
-20 -39 -22 -6 -22 -6 -14 -27 3 -9 14 -16 24 -16 23 0 37 -18 42 -57 3 -24 0
-33 -14 -36 -10 -3 -18 -12 -18 -20 0 -9 -10 -17 -22 -19 -35 -5 -31 -42 5
-46 19 -2 31 -11 38 -29 10 -28 32 -26 38 3 6 31 21 33 49 4 56 -55 57 -59 28
-70 -20 -7 -26 -16 -26 -40 0 -16 5 -30 10 -30 6 0 10 -6 10 -14 0 -29 21 -27
53 5 20 21 27 34 19 37 -6 2 -12 11 -12 20 0 10 3 13 8 7 24 -34 209 -127 287
-145 17 -4 29 -12 27 -18 -1 -7 9 -12 23 -12 15 0 23 -5 20 -12 -6 -18 21 -52
34 -43 6 3 11 14 11 25 0 10 7 20 15 24 11 4 15 -2 15 -24 0 -32 11 -38 29
-16 8 10 24 12 51 9 35 -5 40 -3 40 14 0 15 11 25 43 35 23 8 51 19 62 23 18
8 18 7 6 -8 -7 -9 -11 -23 -8 -31 8 -21 41 -36 57 -26 11 7 9 15 -8 45 -12 20
-22 38 -22 39 0 2 16 7 35 10 26 5 44 19 70 53 33 43 35 44 35 19 0 -21 5 -26
24 -26 13 0 26 7 30 15 6 16 -2 45 -13 45 -22 1 -31 18 -22 46 5 16 12 42 16
57 4 22 10 27 25 22 26 -8 26 12 0 33 -17 15 -19 23 -11 67 5 28 9 44 10 38 2
-19 28 -16 35 3 4 9 2 22 -4 29 -8 9 -8 15 0 20 5 3 10 14 10 25 0 13 5 17 18
13 10 -2 24 3 32 12 11 14 11 19 -3 32 -15 15 -18 15 -34 1 -10 -8 -26 -18
-36 -21 -12 -5 -16 -14 -13 -31 2 -13 2 -27 -1 -30 -19 -19 -59 142 -50 204 7
51 31 90 57 90 11 0 25 9 32 21 7 11 27 26 43 34 36 16 316 40 440 37 347 -8
355 -10 393 -90 29 -62 33 -127 15 -270 -8 -63 -16 -89 -33 -107 -17 -18 -23
-39 -26 -87 -2 -35 -10 -81 -18 -103 -8 -22 -17 -62 -21 -90 -4 -27 -18 -71
-31 -97 -13 -26 -24 -52 -24 -58 0 -6 -13 -31 -30 -55 -16 -24 -30 -46 -30
-50 0 -9 -27 -35 -36 -35 -3 0 -2 6 4 13 12 14 5 57 -10 57 -5 0 -6 15 -3 33
3 20 0 39 -9 50 -12 16 -17 17 -36 5 -15 -9 -20 -20 -17 -36 3 -14 -1 -26 -9
-29 -20 -7 -17 -17 9 -28 15 -7 23 -20 25 -43 2 -18 10 -36 17 -38 8 -3 11
-12 8 -20 -4 -11 -9 -12 -19 -4 -7 7 -23 10 -36 8 -16 -2 -22 2 -20 13 1 8 -9
26 -23 39 -21 19 -29 22 -43 13 -20 -12 -18 -53 5 -70 16 -12 14 -15 -52 -67
-24 -19 -27 -26 -17 -38 16 -20 -9 -43 -58 -54 -19 -4 -39 -9 -45 -10 -73 -18
-163 -30 -175 -24 -8 4 -22 5 -30 2 -13 -4 -13 -3 -2 10 7 9 21 14 31 11 10
-3 22 0 25 6 5 7 15 7 32 1 38 -15 51 -12 79 15 21 22 32 44 23 46 -2 0 -22 2
-45 5 -36 5 -43 3 -43 -11 0 -14 -3 -15 -15 -5 -20 17 -19 30 4 30 21 0 51 40
51 69 0 29 -32 36 -52 11 -10 -12 -18 -17 -18 -10 0 6 -8 22 -17 34 -15 19
-22 22 -40 13 -31 -14 -33 -76 -4 -84 11 -3 17 -11 15 -18 -3 -7 0 -16 5 -20
18 -10 3 -24 -19 -18 -11 3 -20 0 -20 -6 0 -7 -10 -25 -21 -40 -13 -18 -18
-34 -13 -43 4 -7 -5 -1 -21 15 -15 15 -37 27 -47 27 -17 0 -19 -5 -16 -28 4
-26 2 -28 -26 -26 -17 1 -84 3 -149 4 -82 2 -117 6 -114 14 5 16 85 25 91 10
3 -7 15 -9 31 -6 23 4 26 8 20 31 -4 14 -7 26 -8 27 -1 0 -14 8 -29 17 -18 11
-29 13 -33 6 -4 -6 -4 -13 -1 -16 3 -4 -3 -13 -15 -21 -18 -13 -23 -12 -43 7
-25 23 -56 27 -74 9 -10 -10 -16 -7 -28 10 -12 17 -19 20 -34 12 -13 -7 -21
-7 -26 1 -3 6 -14 9 -23 6 -12 -3 -16 3 -17 24 -1 15 -11 39 -23 55 -24 31
-24 32 10 37 13 2 24 10 24 18 0 16 -75 20 -76 4 -1 -18 -32 -45 -51 -45 -18
0 -22 -8 -18 -47 1 -13 -3 -23 -8 -23 -16 0 -21 -39 -6 -50 18 -16 36 -3 32
24 -2 20 31 76 46 76 3 0 3 -13 0 -28 -5 -23 0 -33 23 -53 28 -24 34 -44 20
-66 -11 -18 -28 -16 -20 2 6 18 -23 55 -43 55 -8 0 -16 -11 -20 -25 -8 -34
-29 -32 -51 5 -9 16 -25 30 -34 30 -9 0 -19 9 -22 20 -3 11 -16 24 -29 29 -12
6 -17 10 -10 10 13 1 17 51 4 51 -5 0 -27 16 -50 36 -44 37 -67 37 -60 -1 4
-18 1 -22 -11 -18 -35 13 -42 25 -24 40 17 13 17 14 -4 29 -13 9 -23 22 -23
30 0 20 -22 29 -34 12 -6 -8 -19 -17 -28 -21 -27 -10 -10 -36 28 -43 29 -5 33
-9 22 -21 -9 -11 -9 -19 1 -35 25 -40 -1 -32 -44 13 -24 26 -55 49 -69 53 -18
4 -26 13 -26 28 0 21 1 21 13 4 11 -15 17 -17 35 -7 27 14 27 23 3 45 -15 14
-24 15 -40 6 -18 -9 -21 -8 -21 10 0 11 -6 20 -14 20 -20 0 -7 48 15 55 27 9
24 37 -3 34 -40 -5 -70 10 -63 31 3 11 1 29 -6 41 l-11 22 -19 -24 c-10 -13
-19 -18 -19 -11 0 7 -18 31 -40 53 -22 22 -40 48 -40 57 0 13 2 14 9 4 4 -8
14 -12 22 -11 19 3 52 -12 65 -29 6 -8 15 -12 21 -9 5 3 9 -4 9 -16 -1 -13 6
-23 17 -25 19 -4 23 17 8 46 -5 9 -15 30 -22 45 -14 31 -82 72 -105 63 -30
-12 -22 14 10 29 51 24 72 51 56 70 -14 17 -46 20 -55 5 -4 -6 -10 -8 -15 -5
-9 6 -32 -19 -28 -31 4 -14 -21 -54 -34 -54 -7 0 -6 5 2 15 7 8 10 25 7 37 -7
25 -59 53 -82 44 -9 -3 -15 0 -15 8 0 10 7 12 21 9 19 -5 21 -3 17 21 -4 19
-2 26 7 23 6 -3 18 -1 26 3 11 7 11 12 -3 27 -29 33 -48 79 -37 90 6 6 9 21 7
34 -2 17 -9 24 -25 23 -13 -1 -20 3 -17 11 3 7 14 10 25 8 18 -5 20 -2 17 23
-2 23 -8 29 -25 28 -13 0 -23 3 -23 8 0 4 6 8 13 8 21 0 67 24 67 35 0 6 -19
23 -42 38 -23 15 -37 27 -30 27 6 0 14 16 18 35 9 48 21 53 20 7 -1 -34 2 -37
28 -40 26 -3 28 -2 22 22 -5 22 -2 28 18 36 34 13 41 29 20 46 -18 13 -17 14
9 8 23 -5 27 -3 27 16 0 12 -5 30 -11 41 -5 11 -12 32 -14 47 -1 15 -3 31 -4
36 0 5 -4 6 -8 3 -3 -4 -13 -2 -20 5 -11 9 -17 9 -25 -3 -7 -10 -8 -7 -4 13 3
15 2 30 -4 33 -16 10 -12 25 7 25 15 0 15 1 0 18 -17 19 -19 98 -2 96 28 -3
55 -18 55 -30 0 -8 7 -14 16 -14 8 0 12 -4 9 -10 -3 -5 -1 -19 5 -30 9 -17 14
-19 26 -9 19 15 18 49 -1 49 -10 0 -15 10 -15 26 0 21 -4 25 -20 21 -19 -5
-24 3 -21 31 1 6 -5 12 -14 12 -8 0 -15 3 -15 6 0 12 46 43 64 44 11 0 35 5
53 12 27 10 33 17 33 40 0 21 -5 28 -19 28 -10 0 -21 -9 -24 -20 -4 -15 -14
-20 -42 -20 -38 0 -39 5 -6 44 12 14 13 20 4 23 -18 6 -16 30 2 37 17 6 20 43
5 48 -7 2 -7 13 0 35 8 23 16 30 28 26 11 -5 14 -2 10 8 -4 11 4 14 33 14 46
-1 62 -12 18 -13 -47 -1 -79 -39 -48 -57 16 -10 69 15 69 33 0 13 3 12 14 -4
14 -18 15 -18 33 -1 17 18 17 19 -6 38 -18 14 -19 19 -7 19 9 0 16 -5 16 -11
0 -6 9 -9 19 -6 12 3 22 -1 25 -9 7 -19 29 -17 70 6 41 25 50 44 29 62 -13 10
-17 10 -21 0 -2 -7 -10 -19 -18 -26 -12 -12 -19 -12 -51 4 -50 23 -119 35
-128 21 -3 -6 -13 -11 -21 -11 -25 0 -15 27 21 55 28 21 39 24 50 15 8 -6 23
-9 35 -5 15 5 20 15 20 41 0 30 3 34 25 34 18 0 25 5 25 19 0 12 9 21 25 25
16 4 25 13 25 26 0 15 -7 20 -25 20 -18 0 -25 -5 -25 -20 0 -14 -7 -20 -21
-20 -12 0 -23 -8 -26 -20 -3 -10 -14 -22 -24 -25 -10 -4 -19 -12 -19 -20 0
-19 -27 -26 -40 -10 -9 10 -6 15 9 20 25 8 29 53 6 61 -8 3 -28 -4 -46 -16
-31 -23 -31 -23 -18 -1 8 11 17 21 21 21 5 0 8 15 9 33 0 31 1 31 10 7 12 -29
26 -40 57 -40 20 0 24 7 24 40 1 3 -2 17 -6 33 -4 19 -2 27 7 27 7 0 14 -12
15 -27 2 -27 13 -38 29 -31 4 2 8 20 9 40 2 32 -3 40 -29 58 -23 15 -26 20
-10 15 12 -3 25 -1 29 6 5 9 10 8 18 -3 6 -9 20 -17 31 -19 10 -2 17 -7 14
-10 -2 -4 4 -15 13 -25 9 -11 17 -23 17 -29 -1 -13 28 -31 36 -23 3 3 3 24 -1
47 -6 37 -9 41 -35 41 -22 0 -29 5 -29 18 0 26 -33 54 -54 46 -12 -5 -16 0
-16 20 0 14 -4 26 -10 26 -5 0 -10 5 -10 10 0 7 6 7 20 0 11 -6 20 -17 20 -25
0 -8 8 -15 19 -15 10 0 24 -7 31 -15 7 -8 25 -15 41 -15 22 0 29 5 29 19 0 11
-6 22 -12 24 -8 3 -6 6 5 6 10 1 17 9 17 21 0 15 -7 20 -26 20 -27 0 -60 25
-45 34 5 4 11 0 13 -6 3 -8 11 -2 19 14 8 15 19 27 24 27 6 0 11 12 13 27 l4
26 29 -28 c30 -29 43 -78 14 -54 -18 15 -45 6 -45 -13 0 -35 59 -57 67 -26 3
10 11 19 18 19 22 0 27 26 13 79 -1 7 2 15 9 18 6 2 13 -6 15 -18 5 -33 23
-34 52 -2 18 19 25 36 22 53 -2 14 -5 28 -5 33 -1 4 -10 7 -20 7 -19 0 -31 18
-31 47 0 13 10 15 50 11 42 -4 52 -2 61 13 14 27 46 23 65 -6z m609 -15 c3 -5
12 -7 20 -3 11 3 13 1 9 -10 -4 -13 -11 -13 -36 -5 -26 9 -33 8 -45 -7 -8 -12
-13 -14 -13 -6 0 27 52 52 65 31z m-815 -25 c-10 -12 -10 -18 1 -31 12 -14 11
-16 -5 -13 -26 5 -30 23 -11 43 21 20 32 21 15 1z m1594 -1 c12 -5 13 -10 4
-24 -9 -14 -15 -16 -30 -7 -36 23 -16 47 26 31z m-656 -20 c12 -8 22 -19 22
-25 0 -12 -53 0 -62 15 -20 29 4 35 40 10z m-238 -18 c0 -8 -8 -13 -17 -12
-12 1 -18 -6 -18 -19 0 -16 6 -20 32 -18 23 2 36 -3 48 -19 12 -19 19 -21 33
-12 17 12 20 36 7 66 -6 15 -2 17 32 13 21 -2 44 -4 51 -4 6 -1 12 -7 12 -14
0 -8 11 -20 25 -27 13 -7 22 -17 19 -22 -3 -4 2 -11 10 -14 9 -3 13 -10 10
-16 -12 -19 6 -58 26 -58 16 0 20 7 20 30 0 17 -6 33 -14 36 -8 3 -12 13 -9
25 5 19 7 19 24 3 15 -13 22 -14 33 -5 21 18 68 3 61 -19 -7 -21 19 -44 41
-36 10 4 13 13 9 25 -5 16 -2 18 27 12 28 -6 33 -11 30 -33 -3 -33 9 -42 34
-24 15 11 16 17 6 28 -10 13 -3 16 50 22 65 6 74 4 63 -14 -5 -8 -21 -10 -45
-6 -30 5 -39 2 -46 -12 -4 -9 -6 -21 -5 -26 1 -5 4 -37 7 -70 3 -42 10 -66 24
-80 17 -18 20 -18 26 -3 3 9 -1 31 -10 48 -23 46 -6 99 31 99 32 0 65 38 52
61 -7 14 0 20 38 32 33 11 51 13 60 5 9 -7 25 -3 56 14 39 22 45 23 54 9 9
-14 13 -13 32 8 11 13 18 28 15 32 -9 15 9 10 46 -12 46 -28 50 -36 34 -68
-17 -31 -18 -48 -3 -56 17 -11 50 26 43 48 -16 50 68 -34 107 -108 25 -47 59
-228 49 -260 -1 -5 -2 -28 -2 -50 1 -37 -12 -162 -22 -210 -3 -11 -5 -32 -5
-46 -1 -32 -48 -104 -116 -175 -49 -53 -54 -55 -89 -49 -32 6 -36 5 -36 -13 0
-14 -8 -21 -27 -24 -16 -3 -37 -9 -48 -13 -19 -8 -19 -8 -2 12 25 28 1 83 -36
83 -23 0 -26 -23 -6 -48 18 -23 18 -24 -4 -48 -41 -44 -236 -84 -270 -56 -12
10 -18 10 -30 -3 -21 -20 -179 -35 -159 -14 6 7 12 16 12 20 0 13 -31 39 -47
39 -12 0 -14 -8 -10 -35 5 -33 4 -35 -21 -35 -21 0 -24 2 -12 10 13 8 12 11
-5 25 -43 33 -53 36 -64 18 -10 -17 -13 -16 -36 10 -32 35 -32 73 -2 192 l23
90 36 3 c27 2 38 9 43 25 7 22 7 22 14 -3 4 -14 14 -26 24 -28 23 -5 21 63 -5
105 -22 36 -48 35 -48 -3 0 -26 -1 -27 -24 -18 -11 4 -13 11 -5 31 5 13 9 41
9 61 0 20 5 44 11 52 9 12 10 12 5 -4 -9 -28 3 -56 23 -56 28 0 41 22 44 78 4
62 8 68 31 43 23 -25 46 -16 46 17 0 33 -27 62 -57 62 -17 0 -23 6 -23 23 0
19 -48 77 -64 77 -3 0 -6 -13 -6 -30 0 -20 5 -30 15 -30 9 0 15 -6 13 -12 -1
-7 2 -23 6 -36 4 -13 3 -28 -2 -35 -5 -7 -12 -21 -15 -32 l-5 -20 -1 20 c-3
45 -34 112 -64 137 -29 25 -30 27 -11 28 26 0 39 27 23 46 -16 19 -36 17 -48
-3 -9 -17 -11 -16 -27 5 -12 18 -22 22 -44 17 -41 -9 -80 4 -80 26 0 24 -29
37 -40 19 -6 -9 -21 -11 -54 -6 -38 6 -49 12 -57 32 -12 32 -12 64 1 64 19 0
55 -46 52 -68 -4 -24 4 -27 27 -13 12 8 13 16 3 49 -7 22 -19 45 -27 52 -25
20 -19 57 10 64 14 4 25 13 25 20 0 13 13 20 43 25 4 0 7 -5 7 -13z m823 -6
c-3 -11 -9 -20 -15 -20 -5 0 -4 9 2 20 6 11 12 20 14 20 2 0 2 -9 -1 -20z
m-1082 -367 c-5 -27 -23 -59 -49 -91 -34 -40 -49 -51 -84 -56 -59 -10 -73 7
-52 59 12 30 31 50 75 78 48 32 107 58 116 53 1 -1 -2 -20 -6 -43z m237 25
c17 -5 32 -15 32 -21 -1 -49 -75 -220 -104 -239 -41 -28 -103 19 -93 70 6 32
43 140 57 164 6 10 10 24 10 33 0 15 31 13 98 -7z m163 -155 c1 -48 -19 -170
-32 -194 -11 -22 -95 -63 -109 -54 -18 11 -3 80 34 160 81 172 78 167 93 146
7 -11 14 -37 14 -58z m-1482 -722 c-6 -2 -18 4 -27 13 -15 15 -15 15 10 4 15
-7 23 -15 17 -17z m16 -71 c0 -10 16 -18 45 -24 54 -11 52 -9 44 -30 -5 -14
-9 -14 -22 -4 -12 11 -17 9 -30 -10 -22 -33 -36 -27 -51 24 -13 42 -16 45 -40
40 -25 -6 -25 -6 -6 9 24 19 60 16 60 -5z m-22 -92 c15 -11 12 -13 -23 -15
-28 -1 -40 3 -40 13 0 17 40 18 63 2z m341 -53 c-4 -8 -11 -12 -16 -9 -6 4 -5
10 3 15 19 12 19 11 13 -6z m-384 -195 c0 -5 -4 -10 -9 -10 -6 0 -13 5 -16 10
-3 6 1 10 9 10 9 0 16 -4 16 -10z m13 -150 c-6 -21 -24 -23 -30 -3 -2 6 4 13
14 16 10 3 19 5 20 6 0 0 -1 -8 -4 -19z m507 -22 c17 -27 20 -45 16 -98 -2
-36 -5 -67 -5 -69 -1 -2 -8 2 -17 9 -18 16 -41 69 -54 125 -8 33 -6 42 7 53
25 18 31 15 53 -20z m-489 -85 c-8 -15 -10 -15 -11 -2 0 17 10 32 18 25 2 -3
-1 -13 -7 -23z m-16 -53 c-3 -5 -10 -10 -16 -10 -5 0 -9 5 -9 10 0 6 7 10 16
10 8 0 12 -4 9 -10z m704 -39 c16 -22 21 -44 21 -94 0 -36 -5 -69 -11 -72 -10
-7 -55 21 -108 65 -21 18 -22 23 -11 50 19 46 49 80 70 80 10 0 28 -13 39 -29z
m-679 -11 c0 5 5 10 10 10 6 0 10 -9 10 -20 0 -23 0 -23 -34 -10 -14 5 -26 14
-26 20 0 8 6 8 20 0 14 -7 20 -7 20 0z m360 -30 c0 -5 -2 -10 -4 -10 -3 0 -8
5 -11 10 -3 6 -1 10 4 10 6 0 11 -4 11 -10z m-225 -60 c-3 -5 -12 -10 -18 -10
-7 0 -6 4 3 10 19 12 23 12 15 0z m753 -16 c6 -7 12 -20 12 -28 0 -9 4 -16 10
-16 9 0 40 -62 40 -81 0 -15 -63 -10 -119 11 -29 10 -55 21 -57 23 -6 5 43 99
56 107 15 9 39 2 58 -16z m-818 4 c0 -6 8 -20 18 -31 16 -20 16 -20 -8 -14
-14 4 -28 7 -32 7 -10 0 -10 34 -1 43 10 11 23 8 23 -5z m1090 -34 c0 -19 -13
-32 -65 -67 -48 -33 -55 -33 -55 -5 0 33 58 88 92 88 19 0 28 -5 28 -16z
m-541 -466 c5 -13 5 -24 0 -26 -5 -2 -9 -10 -9 -19 0 -22 -25 -9 -28 15 -2 16
-11 22 -30 23 l-27 2 25 4 c14 3 29 9 35 14 15 15 25 11 34 -13z m1341 -28
c-45 -34 -100 -62 -100 -50 0 7 9 14 20 17 12 3 20 14 20 26 0 16 3 18 12 9
16 -16 28 -15 28 3 0 9 9 15 23 15 22 0 22 0 -3 -20z m-1330 -60 c0 -5 -2 -10
-4 -10 -3 0 -8 5 -11 10 -3 6 -1 10 4 10 6 0 11 -4 11 -10z m63 -17 c-7 -2
-19 -2 -25 0 -7 3 -2 5 12 5 14 0 19 -2 13 -5z m294 -28 c-12 -25 -23 -30 -51
-19 -25 10 -2 39 32 42 29 2 30 1 19 -23z m74 -23 c-7 -2 -18 1 -23 6 -8 8 -4
9 13 5 13 -4 18 -8 10 -11z"/>
<path d="M2704 4223 c-30 -31 -43 -73 -31 -107 22 -69 73 -98 145 -84 83 15
107 70 61 140 -40 62 -136 90 -175 51z m110 -89 c22 -21 20 -31 -6 -38 -27 -7
-53 16 -45 38 8 20 31 20 51 0z"/>
<path d="M3378 4130 c-52 -10 -75 -33 -82 -85 -8 -53 11 -105 45 -121 57 -27
83 -34 124 -34 41 0 46 3 75 44 36 53 37 72 7 117 -19 28 -110 91 -127 88 -3
-1 -22 -5 -42 -9z m92 -115 c22 -26 4 -48 -32 -40 -46 10 -57 23 -34 41 25 18
50 18 66 -1z"/>
<path d="M2371 3849 c-37 -16 -42 -23 -37 -42 3 -12 6 -28 6 -34 0 -20 38 -15
43 5 4 16 5 16 6 0 2 -26 41 -24 41 2 0 11 -7 23 -15 26 -8 4 -15 10 -15 16 0
5 5 6 11 2 12 -7 29 12 29 34 0 16 -17 14 -69 -9z"/>
<path d="M2442 3720 c-11 -24 -17 -28 -31 -20 -26 14 -39 -5 -32 -48 5 -31 10
-37 31 -37 22 0 25 4 22 32 -3 27 0 31 17 26 14 -4 24 3 36 26 9 18 13 36 10
41 -12 20 -40 9 -53 -20z"/>
<path d="M2514 3705 c-14 -36 32 -86 51 -55 5 8 11 8 19 1 9 -8 18 -7 31 2 26
20 4 57 -33 55 -15 -1 -35 2 -44 6 -12 6 -20 3 -24 -9z"/>
<path d="M2687 3704 c-4 -4 -7 -20 -7 -36 0 -25 4 -29 23 -26 17 2 22 10 22
33 0 29 -22 45 -38 29z"/>
<path d="M2300 3674 c0 -8 4 -24 10 -34 7 -14 6 -23 -5 -34 -35 -35 -4 -50 36
-17 18 14 21 22 13 32 -6 8 -14 26 -18 42 -7 29 -36 38 -36 11z"/>
<path d="M2221 3621 c-17 -11 -10 -46 9 -46 17 0 26 33 13 46 -4 4 -14 4 -22
0z"/>
<path d="M2469 3607 c-9 -7 -19 -22 -23 -35 -6 -17 -3 -22 11 -22 23 0 56 37
49 56 -7 17 -16 17 -37 1z"/>
<path d="M2561 3596 c-12 -14 -5 -26 16 -26 15 0 18 26 4 34 -5 3 -14 0 -20
-8z"/>
<path d="M2266 3544 c-7 -19 1 -34 19 -34 8 0 16 4 19 9 9 14 -4 41 -19 41 -7
0 -16 -7 -19 -16z"/>
<path d="M2395 3540 c-8 -13 4 -32 16 -25 12 8 12 35 0 35 -6 0 -13 -4 -16
-10z"/>
<path d="M2192 3528 c-17 -17 -15 -35 5 -42 20 -8 44 19 36 40 -6 17 -25 18
-41 2z"/>
<path d="M2140 3430 c-13 -25 -6 -40 21 -40 23 0 26 32 5 49 -12 10 -17 8 -26
-9z"/>
<path d="M2259 3428 c0 -2 -2 -20 -4 -40 -5 -44 14 -52 38 -17 9 13 17 16 22
10 12 -21 25 -11 25 19 0 33 -14 39 -29 13 -9 -17 -10 -17 -16 0 -6 13 -33 25
-36 15z"/>
<path d="M2078 3358 c-8 -21 22 -84 32 -69 4 8 13 10 20 6 9 -6 5 -12 -14 -22
-29 -15 -35 -53 -13 -72 18 -14 47 16 51 53 1 14 6 29 9 33 16 15 6 44 -18 53
-14 5 -25 14 -25 20 0 14 -37 12 -42 -2z"/>
<path d="M2015 3242 c-16 -11 -34 -57 -31 -78 2 -11 12 -20 24 -22 16 -3 23 4
31 34 7 24 7 43 0 55 -11 21 -10 21 -24 11z"/>
<path d="M2080 3085 c-18 -19 -21 -28 -12 -37 9 -9 18 -7 39 9 16 11 29 28 31
37 5 25 -31 20 -58 -9z"/>
<path d="M1993 3024 c-3 -8 0 -27 6 -41 11 -24 14 -25 28 -11 9 10 13 24 9 36
-9 26 -35 36 -43 16z"/>
<path d="M1886 2984 c-11 -30 13 -44 43 -25 12 8 12 12 2 25 -17 20 -37 20
-45 0z"/>
<path d="M1780 2955 c-18 -21 5 -47 34 -39 14 3 28 -1 35 -10 20 -24 31 -19
31 15 0 28 -3 30 -23 25 -13 -3 -32 1 -44 9 -18 13 -22 13 -33 0z"/>
<path d="M1961 2941 c-14 -9 -12 -44 3 -45 5 -1 14 7 20 16 13 21 -3 41 -23
29z"/>
<path d="M1909 2900 c-11 -6 -15 -18 -11 -35 6 -32 15 -32 36 0 24 36 10 55
-25 35z"/>
<path d="M1996 2885 c-12 -13 -13 -21 -4 -40 15 -33 40 -32 55 2 21 44 -17 72
-51 38z"/>
<path d="M1840 2800 c-12 -7 -12 -13 -4 -27 16 -26 44 -29 44 -5 0 26 -22 43
-40 32z"/>
<path d="M1755 2780 c-4 -6 -1 -17 5 -25 14 -17 40 -20 40 -6 0 5 3 16 6 25 5
12 0 16 -19 16 -14 0 -29 -5 -32 -10z"/>
<path d="M1968 2748 c-8 -21 2 -38 24 -38 14 0 19 6 16 22 -3 25 -33 36 -40
16z"/>
<path d="M1856 2721 c-9 -14 4 -41 20 -41 8 0 14 -6 14 -14 0 -20 25 -37 44
-30 24 9 19 33 -9 46 -14 6 -25 19 -25 30 0 19 -34 26 -44 9z"/>
<path d="M1706 2624 c-8 -20 12 -57 27 -51 11 4 12 25 2 55 -6 17 -22 15 -29
-4z"/>
<path d="M1780 2593 c0 -28 16 -47 35 -40 25 10 15 51 -12 55 -17 3 -23 -2
-23 -15z"/>
<path d="M1894 2595 c-7 -18 3 -35 22 -35 8 0 14 -7 14 -15 0 -18 12 -19 28
-3 20 20 14 48 -14 58 -34 13 -44 13 -50 -5z"/>
<path d="M1779 2505 c-1 -8 -2 -20 -3 -27 -1 -14 32 -20 40 -7 9 15 -6 49 -22
49 -8 0 -15 -7 -15 -15z"/>
<path d="M1881 2501 c-15 -10 -8 -41 9 -41 15 0 25 29 14 40 -5 5 -15 5 -23 1z"/>
<path d="M1830 2454 c-9 -10 -10 -18 -2 -26 12 -12 32 -2 32 17 0 21 -16 26
-30 9z"/>
<path d="M1730 2347 c0 -8 11 -23 23 -36 21 -19 26 -20 36 -7 18 22 -3 56 -34
56 -14 0 -25 -6 -25 -13z"/>
<path d="M3193 2283 c-17 -6 -17 -53 0 -53 19 0 37 21 37 42 0 18 -13 21 -37
11z"/>
<path d="M1700 2266 c0 -30 13 -46 36 -46 29 0 31 20 6 43 -23 21 -42 22 -42
3z"/>
<path d="M1806 2261 c-4 -5 -2 -12 3 -15 5 -4 12 -2 15 3 4 5 2 12 -3 15 -5 4
-12 2 -15 -3z"/>
<path d="M3480 2246 c0 -32 14 -40 35 -20 20 21 15 38 -13 42 -18 3 -22 -2
-22 -22z"/>
<path d="M3648 2238 c-4 -23 0 -36 11 -45 22 -16 36 -1 39 42 2 31 0 35 -22
35 -19 0 -25 -6 -28 -32z"/>
<path d="M3729 2248 c-10 -18 -8 -24 9 -38 11 -9 22 -25 24 -36 5 -27 38 -31
38 -4 0 11 -7 23 -15 26 -10 4 -13 13 -9 26 6 19 -10 48 -27 48 -5 0 -14 -10
-20 -22z"/>
<path d="M3063 2253 c-17 -6 -16 -38 1 -52 18 -15 49 -3 42 16 -3 8 -6 18 -6
23 0 11 -22 18 -37 13z"/>
<path d="M3393 2242 c-18 -11 -4 -52 18 -52 24 0 32 16 19 40 -12 22 -18 24
-37 12z"/>
<path d="M3805 2239 c-10 -15 17 -97 33 -104 18 -7 52 16 52 35 0 15 -59 80
-72 80 -4 0 -10 -5 -13 -11z"/>
<path d="M1836 2233 c-4 -4 -15 -8 -24 -8 -12 0 -17 -9 -17 -30 0 -43 29 -45
49 -4 15 30 9 59 -8 42z"/>
<path d="M3250 2195 c-9 -11 -10 -19 -2 -27 14 -14 32 -1 32 23 0 23 -13 25
-30 4z"/>
<path d="M1706 2191 c-10 -16 5 -41 25 -41 14 0 19 7 19 25 0 18 -5 25 -19 25
-11 0 -22 -4 -25 -9z"/>
<path d="M3520 2157 c0 -33 23 -62 44 -54 31 12 11 77 -24 77 -14 0 -20 -7
-20 -23z"/>
<path d="M2966 2125 c-4 -12 0 -19 14 -22 11 -3 20 -14 20 -24 0 -23 27 -36
42 -21 7 7 7 16 -1 29 -6 10 -11 14 -12 8 0 -5 -4 1 -8 15 -8 29 -45 39 -55
15z"/>
<path d="M1680 2111 c0 -15 -5 -18 -21 -14 -19 5 -20 3 -14 -18 10 -33 12 -34
38 -21 12 7 32 13 44 15 26 4 65 36 57 48 -3 5 -15 4 -27 -2 -16 -9 -22 -9
-25 0 -2 6 -15 11 -28 11 -17 0 -24 -6 -24 -19z"/>
<path d="M3363 2088 c-5 -7 -8 -19 -7 -25 1 -7 2 -18 3 -24 0 -6 7 -9 15 -6
11 4 12 -1 4 -31 -20 -78 -21 -92 -5 -92 9 0 19 5 23 11 4 7 10 7 16 1 13 -13
38 -4 38 13 0 8 -9 17 -20 20 -23 7 -25 17 -9 47 9 17 8 24 -6 34 -9 7 -14 17
-11 22 9 14 -4 42 -19 42 -7 0 -17 -6 -22 -12z"/>
<path d="M3096 2052 c-3 -5 -4 -17 -2 -28 2 -14 12 -20 39 -22 43 -4 46 6 14
36 -24 23 -42 28 -51 14z"/>
<path d="M3250 2042 c0 -26 27 -49 41 -35 17 17 6 48 -19 51 -16 3 -22 -2 -22
-16z"/>
<path d="M1677 2014 c-17 -23 -17 -27 -3 -43 8 -9 13 -26 10 -37 -4 -16 0 -23
17 -27 25 -7 49 8 49 29 0 8 -9 14 -20 14 -24 0 -26 13 -5 30 9 7 15 23 13 34
-4 31 -39 31 -61 0z"/>
<path d="M3662 2021 c-20 -12 -11 -65 12 -69 28 -6 38 11 25 46 -12 34 -16 37
-37 23z"/>
<path d="M3784 2015 c-3 -8 -3 -18 0 -23 3 -6 -1 -13 -10 -16 -10 -4 -14 -16
-12 -33 3 -30 23 -39 48 -23 12 8 13 13 3 30 -16 25 -16 30 1 30 13 0 26 20
26 41 0 15 -50 10 -56 -6z"/>
<path d="M1790 2000 c0 -23 37 -47 52 -32 7 7 3 17 -11 31 -26 26 -41 27 -41
1z"/>
<path d="M3494 1946 c-7 -31 1 -46 27 -46 23 0 26 34 5 56 -20 19 -25 18 -32
-10z"/>
<path d="M1796 1932 c-4 -4 -13 -7 -19 -7 -25 0 -16 -20 13 -28 20 -5 30 -14
30 -26 0 -24 25 -45 45 -37 23 8 18 31 -10 44 -15 7 -23 17 -19 26 6 16 -29
40 -40 28z"/>
<path d="M3610 1917 c0 -33 17 -45 52 -38 42 9 44 22 7 44 -42 23 -59 22 -59
-6z"/>
<path d="M3110 1886 c-16 -30 -7 -56 19 -56 13 0 21 9 26 30 11 52 -21 70 -45
26z"/>
<path d="M3010 1885 c-16 -20 -2 -37 35 -41 25 -3 31 9 19 40 -8 20 -38 21
-54 1z"/>
<path d="M3230 1830 c0 -15 5 -20 18 -18 9 2 17 10 17 18 0 8 -8 16 -17 18
-13 2 -18 -3 -18 -18z"/>
<path d="M3366 1835 c-20 -15 -21 -31 0 -39 26 -10 104 -7 104 4 0 6 -9 10
-20 10 -11 0 -20 3 -20 8 0 4 -11 12 -24 18 -17 8 -27 8 -40 -1z"/>
<path d="M3668 1786 c-21 -47 14 -74 56 -43 14 10 15 18 7 40 -13 35 -47 36
-63 3z"/>
<path d="M3257 1753 c-25 -24 8 -72 51 -73 28 0 28 13 0 50 -21 29 -38 37 -51
23z"/>
<path d="M3062 1708 c-7 -7 -13 -21 -13 -32 -1 -17 -2 -18 -6 -3 -6 21 -39 22
-51 1 -12 -21 -3 -64 13 -64 24 0 45 12 45 26 0 8 6 11 15 7 18 -6 44 23 45
48 0 9 -7 20 -16 23 -20 8 -18 8 -32 -6z"/>
<path d="M3390 1706 c0 -28 12 -46 31 -46 10 0 19 -7 19 -15 0 -18 2 -18 35
-3 14 6 25 16 25 21 0 6 -3 7 -7 4 -3 -4 -12 1 -18 10 -11 15 -15 15 -29 4
-16 -14 -20 -9 -17 22 2 11 -5 17 -18 17 -12 0 -21 -6 -21 -14z"/>
<path d="M3726 1691 c-22 -24 -19 -29 14 -33 28 -4 35 11 17 36 -12 16 -14 16
-31 -3z"/>
<path d="M3108 1653 c-6 -25 1 -43 17 -43 16 0 29 35 20 50 -10 16 -32 12 -37
-7z"/>
<path d="M3352 1648 c-15 -15 -16 -45 -1 -54 8 -5 6 -10 -5 -16 -9 -5 -16 -20
-16 -34 0 -21 4 -25 23 -22 16 2 22 10 23 28 0 14 6 35 13 48 8 16 9 27 1 42
-12 23 -21 25 -38 8z"/>
<path d="M1890 1629 c0 -24 23 -21 28 4 2 10 -3 17 -12 17 -10 0 -16 -9 -16
-21z"/>
<path d="M3156 1628 c-20 -29 -20 -44 0 -52 16 -6 16 -8 0 -24 -33 -37 -19
-51 45 -43 8 1 19 36 25 78 8 55 -41 83 -70 41z"/>
<path d="M3644 1635 c-8 -20 4 -35 26 -35 28 0 35 19 14 35 -24 18 -33 18 -40
0z"/>
<path d="M1897 1563 c-23 -22 13 -50 47 -37 23 9 20 31 -6 38 -29 7 -33 7 -41
-1z"/>
<path d="M3582 1548 c-21 -21 -11 -78 14 -78 20 0 35 36 28 65 -7 27 -23 32
-42 13z"/>
<path d="M3657 1539 c-9 -12 -13 -28 -10 -35 3 -8 0 -14 -5 -14 -8 0 -10 -40
-3 -58 0 -1 10 2 21 8 13 7 20 21 20 40 0 17 5 30 11 30 14 0 7 42 -8 47 -6 2
-18 -6 -26 -18z"/>
<path d="M2096 1531 c-10 -16 5 -41 24 -41 10 0 23 -7 30 -15 9 -10 9 -15 1
-15 -17 0 -13 -25 7 -43 10 -10 21 -17 25 -17 5 0 4 75 -2 116 0 6 -12 9 -26
6 -15 -2 -25 0 -25 7 0 13 -26 15 -34 2z"/>
<path d="M2866 1503 c-5 -11 0 -23 14 -33 16 -12 20 -23 16 -53 -5 -41 1 -49
32 -40 15 4 22 13 23 32 0 14 4 35 8 46 12 29 3 45 -24 45 -13 0 -27 5 -30 10
-10 16 -32 12 -39 -7z"/>
<path d="M1960 1485 c-15 -18 -3 -38 21 -32 13 3 19 -1 21 -17 2 -16 11 -21
35 -23 18 -1 35 3 38 8 10 15 -14 49 -34 49 -10 0 -24 7 -31 15 -16 19 -34 19
-50 0z"/>
<path d="M3097 1483 c-4 -3 -7 -21 -7 -39 0 -34 13 -44 57 -44 23 0 24 3 18
33 -4 17 -12 38 -17 45 -11 13 -40 16 -51 5z"/>
<path d="M1921 1460 c-17 -10 -7 -40 14 -40 8 0 15 9 15 19 0 24 -12 32 -29
21z"/>
<path d="M2245 1460 c-3 -5 -15 -10 -26 -10 -12 0 -19 -7 -19 -20 0 -29 23
-34 60 -15 31 16 31 17 14 36 -20 22 -21 22 -29 9z"/>
<path d="M2976 1455 c-9 -9 -16 -19 -16 -23 1 -12 27 -42 36 -42 5 0 14 -10
19 -22 6 -13 20 -24 33 -26 37 -5 28 39 -17 88 -35 38 -40 40 -55 25z"/>
<path d="M3206 1451 c-14 -16 -15 -20 -2 -30 11 -9 20 -10 35 -1 26 13 26 22
2 37 -15 10 -22 9 -35 -6z"/>
<path d="M3327 1463 c-17 -16 -5 -33 23 -33 23 0 30 4 30 20 0 14 -7 20 -23
20 -13 0 -27 -3 -30 -7z"/>
<path d="M2298 1443 c-8 -30 2 -43 33 -43 33 0 38 19 11 43 -24 22 -39 21 -44
0z"/>
<path d="M2110 1401 c0 -5 6 -16 13 -23 8 -7 12 -19 9 -26 -2 -8 6 -12 25 -11
15 1 43 -1 61 -5 18 -4 32 -4 32 2 0 15 -35 42 -56 42 -11 0 -29 7 -40 15 -22
16 -44 19 -44 6z"/>
<path d="M2786 1382 c-3 -3 -6 -15 -6 -27 0 -17 9 -25 40 -34 22 -7 45 -9 50
-6 12 8 7 42 -8 57 -13 13 -67 20 -76 10z"/>
<path d="M3358 1383 c-10 -3 -18 -13 -18 -23 0 -10 -12 -27 -27 -38 -30 -22
-25 -39 12 -42 34 -4 45 -1 45 13 0 7 9 18 20 25 11 7 20 16 20 21 0 18 -36
48 -52 44z"/>
<path d="M2410 1370 c0 -5 -10 -18 -21 -29 -23 -21 -20 -51 4 -51 8 0 22 9 32
20 10 11 26 20 37 20 23 0 23 19 1 36 -21 16 -53 18 -53 4z"/>
<path d="M3139 1354 c-24 -29 17 -66 50 -45 12 8 13 14 3 35 -13 30 -33 33
-53 10z"/>
<path d="M3238 1363 c-22 -5 -24 -46 -4 -62 12 -10 18 -8 31 12 14 22 12 59
-4 56 -3 -1 -14 -3 -23 -6z"/>
<path d="M2672 1351 c-18 -11 -12 -45 8 -48 27 -5 46 14 34 34 -13 21 -25 25
-42 14z"/>
<path d="M2261 1317 c-9 -11 -7 -20 8 -38 22 -28 31 -23 34 17 2 32 -22 44
-42 21z"/>
<path d="M2533 1314 c-7 -20 22 -45 43 -37 19 7 18 39 -2 47 -25 10 -34 7 -41
-10z"/>
<path d="M3031 1301 c-20 -13 2 -64 26 -59 26 5 39 34 24 52 -15 18 -29 20
-50 7z"/>
<path d="M2866 1274 c-22 -21 -3 -56 27 -52 29 4 34 39 8 55 -16 10 -23 10
-35 -3z"/>
<path d="M3271 1266 c-7 -8 -11 -34 -9 -58 3 -42 4 -43 34 -40 27 3 32 -1 37
-25 3 -15 1 -33 -4 -40 -15 -18 5 -24 35 -10 22 10 26 18 26 55 0 27 -5 42
-12 42 -20 1 -65 43 -73 68 -7 25 -18 28 -34 8z"/>
<path d="M2580 1245 c-16 -19 -9 -49 14 -53 28 -6 38 11 27 41 -12 30 -23 34
-41 12z"/>
<path d="M2283 1239 c-18 -18 14 -64 33 -48 19 15 18 45 -2 53 -20 8 -18 8
-31 -5z"/>
<path d="M2700 1190 c0 -16 26 -40 44 -40 3 0 6 14 6 30 0 25 -4 30 -25 30
-18 0 -25 -5 -25 -20z"/>
<path d="M2917 1203 c-4 -3 -7 -19 -7 -35 0 -36 25 -47 51 -22 17 18 18 21 3
42 -15 22 -35 28 -47 15z"/>
<path d="M3030 1165 c-7 -8 -21 -15 -31 -15 -10 0 -23 -9 -29 -19 -8 -16 -6
-21 12 -27 13 -4 24 -2 26 5 3 8 9 8 24 0 26 -14 48 -5 48 20 0 48 -25 66 -50
36z"/>
<path d="M2895 1101 c-14 -17 -15 -23 -5 -36 7 -8 21 -15 32 -15 27 0 34 28
11 51 -19 20 -19 20 -38 0z"/>
<path d="M3102 3710 c-6 -11 -12 -28 -12 -39 0 -21 -13 -22 -46 -3 -12 6 -24
9 -27 5 -4 -3 -14 0 -22 7 -21 17 -39 0 -31 -28 5 -16 19 -22 59 -27 29 -4 57
-6 62 -5 21 5 25 -1 16 -18 -12 -23 2 -47 23 -39 12 5 15 14 10 32 -4 15 -2
25 5 25 14 0 15 37 1 45 -5 3 -7 19 -3 35 7 36 -15 42 -35 10z"/>
<path d="M3872 3703 c4 -21 33 -25 33 -3 0 8 -8 16 -18 18 -14 3 -18 -1 -15
-15z"/>
<path d="M3260 3635 c-10 -12 -9 -16 4 -21 22 -8 46 2 46 21 0 19 -34 20 -50
0z"/>
<path d="M3342 3634 c-12 -8 -22 -21 -22 -28 0 -20 50 -70 72 -71 17 -2 19 4
17 44 -4 70 -23 86 -67 55z"/>
<path d="M3680 3635 c0 -8 7 -15 15 -15 8 0 15 7 15 15 0 8 -7 15 -15 15 -8 0
-15 -7 -15 -15z"/>
<path d="M3198 3592 c-8 -30 3 -42 37 -42 19 0 37 -4 40 -10 10 -16 45 -12 45
6 0 40 -42 73 -53 42 -3 -10 -12 -9 -34 4 -29 17 -31 17 -35 0z"/>
<path d="M3447 3582 c-11 -16 0 -47 17 -50 14 -3 17 2 14 24 -3 27 -21 43 -31
26z"/>
<path d="M3870 3572 c0 -18 18 -42 31 -42 11 0 19 29 13 45 -9 22 -44 19 -44
-3z"/>
<path d="M3246 3511 c-8 -12 10 -61 23 -61 13 0 26 22 26 45 0 21 -38 34 -49
16z"/>
<path d="M3320 3496 c0 -14 4 -27 10 -31 5 -3 7 -12 3 -20 -9 -25 15 -42 58
-42 31 0 39 3 37 16 -2 9 -13 20 -25 25 -11 6 -28 25 -37 43 -19 39 -46 44
-46 9z"/>
<path d="M3210 3500 c0 -5 5 -10 10 -10 6 0 10 5 10 10 0 6 -4 10 -10 10 -5 0
-10 -4 -10 -10z"/>
<path d="M3999 3460 c-59 -17 -124 -89 -143 -160 -4 -14 -12 -35 -18 -47 -8
-17 -8 -26 1 -37 7 -8 18 -37 26 -65 7 -27 19 -57 26 -66 75 -92 139 -126 166
-90 18 26 16 39 -10 66 -13 13 -29 44 -37 69 -7 25 -17 49 -22 55 -29 33 10
145 60 175 35 21 37 26 22 64 -12 32 -38 45 -71 36z"/>
<path d="M3382 3368 c2 -13 8 -23 13 -23 6 0 11 10 13 23 2 15 -2 22 -13 22
-11 0 -15 -7 -13 -22z"/>
<path d="M3680 3361 c-7 -13 -7 -22 0 -26 13 -8 30 3 30 20 0 23 -18 27 -30 6z"/>
<path d="M3414 3285 c-7 -18 2 -45 15 -45 12 0 24 37 16 50 -9 15 -25 12 -31
-5z"/>
<path d="M3485 3291 c-7 -13 6 -40 33 -64 25 -23 32 -12 23 33 -5 25 -13 36
-28 38 -12 2 -24 -2 -28 -7z"/>
<path d="M3694 3279 c-3 -6 -1 -16 5 -22 8 -8 11 -5 11 11 0 24 -5 28 -16 11z"/>
<path d="M3737 3263 c-14 -13 -6 -33 12 -33 19 0 35 23 24 34 -8 8 -28 8 -36
-1z"/>
<path d="M3304 3176 c-11 -29 1 -61 23 -64 30 -4 41 33 17 59 -20 23 -33 24
-40 5z"/>
<path d="M3600 3070 c0 -18 23 -59 37 -64 19 -8 26 15 14 47 -10 26 -51 40
-51 17z"/>
<path d="M3451 3026 c-17 -20 3 -56 30 -56 17 0 20 5 17 32 -3 36 -27 48 -47
24z"/>
<path d="M3878 3025 c-12 -12 16 -65 35 -65 28 0 20 64 -8 68 -12 2 -24 0 -27
-3z"/>
<path d="M3270 3009 c0 -5 -4 -8 -8 -5 -14 8 -81 -16 -87 -31 -7 -19 2 -33 21
-33 8 0 14 -4 14 -10 0 -15 43 -12 66 4 16 12 17 18 7 35 -10 16 -9 20 3 25 8
3 12 10 9 16 -8 13 -25 13 -25 -1z"/>
<path d="M3533 2963 c-18 -7 -16 -43 3 -50 16 -6 34 11 34 33 0 14 -20 23 -37
17z"/>
<path d="M3127 2943 c-11 -11 -8 -58 5 -71 9 -9 8 -12 -5 -12 -34 0 -30 -30 8
-65 35 -34 65 -45 65 -25 0 6 15 9 32 8 27 -3 34 1 36 18 2 11 -4 27 -13 34
-13 11 -19 10 -35 -5 -11 -10 -20 -13 -20 -7 0 6 5 14 10 17 19 12 10 44 -24
79 -33 36 -46 42 -59 29z"/>
<path d="M3840 2921 c0 -21 26 -36 36 -20 9 15 -3 39 -21 39 -8 0 -15 -9 -15
-19z"/>
<path d="M3314 2855 c-8 -33 11 -55 47 -55 37 0 38 24 3 56 -32 30 -42 30 -50
-1z"/>
<path d="M3563 2864 c-16 -7 -5 -34 13 -34 8 0 14 9 14 20 0 20 -5 23 -27 14z"/>
<path d="M3615 2842 c-6 -4 -10 -13 -9 -19 1 -7 2 -20 3 -28 1 -19 25 -19 41
0 23 28 -6 68 -35 47z"/>
<path d="M3480 2778 c0 -46 53 -68 64 -26 6 27 0 34 -36 43 -25 6 -28 4 -28
-17z"/>
<path d="M3330 2780 c0 -6 12 -23 28 -38 l27 -27 3 23 c2 13 1 30 -2 38 -6 16
-56 19 -56 4z"/>
<path d="M3420 2775 c-14 -17 -5 -51 16 -59 22 -8 41 38 24 59 -16 19 -24 19
-40 0z"/>
</g>
</svg>
